<svg width="95" height="95" viewBox="0 0 95 95" fill="none" xmlns="http://www.w3.org/2000/svg">
<g clip-path="url(#clip0_139_724)">
<path d="M63.3335 39.5833H31.6668V35.625H63.3335V39.5833ZM44.0564 83.125L48.2681 87.0833H13.8543C8.39975 87.0833 3.9585 80.8687 3.9585 73.2291C3.9585 65.5895 8.39975 59.375 13.8543 59.375H19.7918V22.7604C19.7918 14.5745 24.2331 7.91663 29.6877 7.91663H81.146C86.6006 7.91663 90.8439 14.1312 90.8439 21.7708C90.8439 29.4104 86.6006 35.625 81.146 35.625H75.2085V63.8795L71.2502 67.7548V22.7604C71.2158 18.9819 72.0843 15.2499 73.7835 11.875H29.6877C26.8852 11.875 23.7502 16.53 23.7502 22.7604V59.375H65.5897L62.7793 62.6445C60.4461 65.6684 59.2421 69.4121 59.3752 73.2291C59.376 74.1453 59.4381 75.0604 59.5612 75.9683L55.4762 72.1248C55.5741 69.0772 56.3047 66.0833 57.6216 63.3333H13.8543C10.6916 63.3333 7.91683 67.9566 7.91683 73.2291C7.91683 78.5016 10.6916 83.125 13.8543 83.125H44.0564ZM75.2085 31.6666H81.146C84.3087 31.6666 87.2814 27.0433 87.2814 21.7708C87.2814 16.4983 84.3087 11.875 81.146 11.875H78.4662C76.252 15.0655 75.111 18.878 75.2085 22.7604V31.6666ZM31.6668 51.4583H63.3335V47.5H31.6668V51.4583ZM63.3335 23.75H31.6668V27.7083H63.3335V23.75ZM89.027 58.6585L61.3266 85.777L50.1166 75.236L47.4052 78.1177L61.3781 91.2633L91.7979 61.4887L89.027 58.6585Z" fill="black"/>
</g>
<defs>
<clipPath id="clip0_139_724">
<rect width="95" height="95" fill="white"/>
</clipPath>
</defs>
</svg>
