<svg width="111" height="80" viewBox="0 0 111 80" fill="none" xmlns="http://www.w3.org/2000/svg">
<path d="M108.082 29.8386C111.103 28.5189 111.103 24.231 108.082 22.9113L60.0449 1.89514C58.5967 1.25989 57.0501 0.946045 55.4998 0.946045C53.9495 0.946045 52.403 1.26367 50.9548 1.89892L2.91777 22.9113C-0.103449 24.2348 -0.103449 28.5189 2.91777 29.8386L25.2498 39.6093V52.1631C25.2498 56.4586 27.6774 60.3873 31.5191 62.3082C39.0703 66.0819 47.2832 67.9687 55.4998 67.9687C63.7165 67.9687 71.9294 66.0819 79.4767 62.3082C83.3223 60.3873 85.7498 56.4586 85.7498 52.1631V39.6093L100.875 32.9921V60.4062C98.7876 60.4062 97.0936 62.1002 97.0936 64.1875V75.5312C97.0936 77.6185 98.7876 79.3125 100.875 79.3125H104.656C106.743 79.3125 108.437 77.6185 108.437 75.5312V64.1875C108.437 62.1002 106.743 60.4062 104.656 60.4062V31.336L108.082 29.8386ZM81.9686 52.1631C81.9686 55.0444 80.3653 57.6383 77.7865 58.9277C70.9046 62.3687 63.1947 64.1875 55.4998 64.1875C47.805 64.1875 40.095 62.3687 33.2131 58.9277C30.6343 57.6383 29.0311 55.0444 29.0311 52.1631V41.2655L50.9548 50.8548C52.403 51.49 53.9533 51.8076 55.4998 51.8076C57.0501 51.8076 58.5967 51.49 60.0449 50.8548L81.9686 41.2617V52.1631ZM58.5324 47.3911C57.572 47.8109 56.551 48.0264 55.4998 48.0264C54.4486 48.0264 53.4315 47.8146 52.4673 47.3911L4.43405 26.375L52.4673 5.35876C53.4315 4.93904 54.4486 4.72729 55.4998 4.72729C56.551 4.72729 57.5682 4.93904 58.5324 5.36254L106.566 26.375L102.338 28.224L58.8803 24.749C58.2677 23.4823 56.9972 22.5937 55.4998 22.5937C53.4126 22.5937 51.7186 24.2877 51.7186 26.375C51.7186 28.4622 53.4126 30.1562 55.4998 30.1562C56.7741 30.1562 57.848 29.4831 58.5324 28.5151L95.0063 31.4343L58.5324 47.3911Z" fill="#0B1719"/>
</svg>
