<svg width="95" height="95" viewBox="0 0 95 95" fill="none" xmlns="http://www.w3.org/2000/svg">
<path d="M65.2837 0H10.8721V95H84.1279V18.8444L65.2837 0ZM66.3181 6.02921L78.0984 17.8098H66.3181V6.02921ZM14.4038 91.4682V3.53177H62.7865V21.3416H80.5963V91.4685L14.4038 91.4682Z" fill="black"/>
<path d="M23.8838 27.6844H36.876V14.6921H23.8838V27.6844ZM27.4156 18.2239H33.3442V24.1526H27.4156V18.2239Z" fill="black"/>
<path d="M23.8838 45.2256H36.876V32.2334H23.8838V45.2256ZM27.4156 35.7652H33.3442V41.6938H27.4156V35.7652Z" fill="black"/>
<path d="M23.8838 62.7669H36.876V49.7744H23.8838V62.7669ZM27.4156 53.3062H33.3442V59.2351H27.4156V53.3062Z" fill="black"/>
<path d="M23.8838 80.3081H36.876V67.3159H23.8838V80.3081ZM27.4156 70.8477H33.3442V76.7764H27.4156V70.8477Z" fill="black"/>
<path d="M68.8751 76.7764H41.8716V80.3081H68.8751V76.7764Z" fill="black"/>
<path d="M68.8751 59.2351H41.8716V62.7669H68.8751V59.2351Z" fill="black"/>
<path d="M68.8751 41.6938H41.8716V45.2256H68.8751V41.6938Z" fill="black"/>
<path d="M68.8751 24.1526H41.8716V27.6844H68.8751V24.1526Z" fill="black"/>
</svg>
